<mxfile host="Electron" agent="Mozilla/5.0 (Windows NT 10.0; Win64; x64) AppleWebKit/537.36 (KHTML, like Gecko) draw.io/25.0.2 Chrome/128.0.6613.186 Electron/32.2.5 Safari/537.36" version="25.0.2" pages="4">
  <diagram id="NC4BXEW_IN6feg5WKlDS" name="main">
    <mxGraphModel dx="2867" dy="2762" grid="0" gridSize="10" guides="1" tooltips="1" connect="1" arrows="1" fold="1" page="1" pageScale="1" pageWidth="827" pageHeight="1169" math="0" shadow="0">
      <root>
        <mxCell id="0" />
        <mxCell id="1" parent="0" />
        <mxCell id="_3YJXU0iMjtWT4cMO_2c-1" value="" style="group" vertex="1" connectable="0" parent="1">
          <mxGeometry x="120" y="-7.799999999999997" width="607.5" height="1036.8" as="geometry" />
        </mxCell>
        <mxCell id="Q1WiioonHet7PoMUpYp9-3" value="" style="edgeStyle=orthogonalEdgeStyle;rounded=0;orthogonalLoop=1;jettySize=auto;html=1;exitX=0.5;exitY=1;exitDx=0;exitDy=0;exitPerimeter=0;" parent="_3YJXU0iMjtWT4cMO_2c-1" edge="1">
          <mxGeometry relative="1" as="geometry">
            <mxPoint x="297.98" y="87.8" as="sourcePoint" />
            <mxPoint x="293.9975438596491" y="117.8" as="targetPoint" />
            <Array as="points">
              <mxPoint x="293.98" y="87.8" />
            </Array>
          </mxGeometry>
        </mxCell>
        <mxCell id="Q1WiioonHet7PoMUpYp9-1" value="&lt;font style=&quot;font-size: 14px;&quot;&gt;Начало&lt;/font&gt;" style="strokeWidth=2;html=1;shape=mxgraph.flowchart.start_1;whiteSpace=wrap;" parent="_3YJXU0iMjtWT4cMO_2c-1" vertex="1">
          <mxGeometry x="244" y="27.799999999999997" width="100" height="60" as="geometry" />
        </mxCell>
        <mxCell id="Q1WiioonHet7PoMUpYp9-13" value="" style="edgeStyle=orthogonalEdgeStyle;rounded=0;orthogonalLoop=1;jettySize=auto;html=1;" parent="_3YJXU0iMjtWT4cMO_2c-1" source="Q1WiioonHet7PoMUpYp9-2" target="Q1WiioonHet7PoMUpYp9-12" edge="1">
          <mxGeometry relative="1" as="geometry" />
        </mxCell>
        <mxCell id="Q1WiioonHet7PoMUpYp9-2" value="int main()" style="shape=process;whiteSpace=wrap;html=1;backgroundOutline=1;strokeWidth=2;" parent="_3YJXU0iMjtWT4cMO_2c-1" vertex="1">
          <mxGeometry x="234" y="117.8" width="120" height="30" as="geometry" />
        </mxCell>
        <mxCell id="Q1WiioonHet7PoMUpYp9-6" value="" style="endArrow=none;dashed=1;html=1;rounded=0;entryX=0;entryY=0.5;entryDx=0;entryDy=0;entryPerimeter=0;strokeColor=default;targetPerimeterSpacing=0;sourcePerimeterSpacing=0;jumpStyle=none;" parent="_3YJXU0iMjtWT4cMO_2c-1" edge="1">
          <mxGeometry width="50" height="50" relative="1" as="geometry">
            <mxPoint x="294" y="97.8" as="sourcePoint" />
            <mxPoint x="417" y="98.3" as="targetPoint" />
            <Array as="points">
              <mxPoint x="370" y="97.8" />
            </Array>
          </mxGeometry>
        </mxCell>
        <mxCell id="Q1WiioonHet7PoMUpYp9-11" value="{" style="text;html=1;align=center;verticalAlign=middle;resizable=0;points=[];autosize=1;strokeColor=none;fillColor=none;" parent="_3YJXU0iMjtWT4cMO_2c-1" vertex="1">
          <mxGeometry x="264" y="145.8" width="30" height="30" as="geometry" />
        </mxCell>
        <mxCell id="Q1WiioonHet7PoMUpYp9-19" value="" style="edgeStyle=orthogonalEdgeStyle;rounded=0;orthogonalLoop=1;jettySize=auto;html=1;" parent="_3YJXU0iMjtWT4cMO_2c-1" source="Q1WiioonHet7PoMUpYp9-12" target="Q1WiioonHet7PoMUpYp9-18" edge="1">
          <mxGeometry relative="1" as="geometry" />
        </mxCell>
        <mxCell id="Q1WiioonHet7PoMUpYp9-12" value="setlocale(LC_ALL, &quot;RU&quot;);" style="whiteSpace=wrap;html=1;strokeWidth=2;" parent="_3YJXU0iMjtWT4cMO_2c-1" vertex="1">
          <mxGeometry x="221" y="177.8" width="146" height="30" as="geometry" />
        </mxCell>
        <mxCell id="Q1WiioonHet7PoMUpYp9-21" value="" style="edgeStyle=orthogonalEdgeStyle;rounded=0;orthogonalLoop=1;jettySize=auto;html=1;" parent="_3YJXU0iMjtWT4cMO_2c-1" source="Q1WiioonHet7PoMUpYp9-18" target="Q1WiioonHet7PoMUpYp9-20" edge="1">
          <mxGeometry relative="1" as="geometry" />
        </mxCell>
        <mxCell id="Q1WiioonHet7PoMUpYp9-18" value="cout &amp;lt;&amp;lt; &quot;Введите значение x:\n&quot;;" style="shape=parallelogram;perimeter=parallelogramPerimeter;whiteSpace=wrap;html=1;fixedSize=1;strokeWidth=2;" parent="_3YJXU0iMjtWT4cMO_2c-1" vertex="1">
          <mxGeometry x="180.5" y="227.8" width="227" height="30" as="geometry" />
        </mxCell>
        <mxCell id="Q1WiioonHet7PoMUpYp9-23" value="" style="edgeStyle=orthogonalEdgeStyle;rounded=0;orthogonalLoop=1;jettySize=auto;html=1;" parent="_3YJXU0iMjtWT4cMO_2c-1" source="Q1WiioonHet7PoMUpYp9-20" target="Q1WiioonHet7PoMUpYp9-22" edge="1">
          <mxGeometry relative="1" as="geometry" />
        </mxCell>
        <mxCell id="Q1WiioonHet7PoMUpYp9-20" value="cout &amp;lt;&amp;lt; &quot;x = &quot;;" style="shape=parallelogram;perimeter=parallelogramPerimeter;whiteSpace=wrap;html=1;fixedSize=1;strokeWidth=2;" parent="_3YJXU0iMjtWT4cMO_2c-1" vertex="1">
          <mxGeometry x="234" y="277.8" width="120" height="20" as="geometry" />
        </mxCell>
        <mxCell id="Q1WiioonHet7PoMUpYp9-25" value="" style="edgeStyle=orthogonalEdgeStyle;rounded=0;orthogonalLoop=1;jettySize=auto;html=1;" parent="_3YJXU0iMjtWT4cMO_2c-1" source="Q1WiioonHet7PoMUpYp9-22" target="Q1WiioonHet7PoMUpYp9-24" edge="1">
          <mxGeometry relative="1" as="geometry" />
        </mxCell>
        <mxCell id="Q1WiioonHet7PoMUpYp9-22" value="cin &amp;gt;&amp;gt; x;" style="shape=parallelogram;perimeter=parallelogramPerimeter;whiteSpace=wrap;html=1;fixedSize=1;strokeWidth=2;" parent="_3YJXU0iMjtWT4cMO_2c-1" vertex="1">
          <mxGeometry x="234" y="317.8" width="120" height="20" as="geometry" />
        </mxCell>
        <mxCell id="Q1WiioonHet7PoMUpYp9-27" value="" style="edgeStyle=orthogonalEdgeStyle;rounded=0;orthogonalLoop=1;jettySize=auto;html=1;" parent="_3YJXU0iMjtWT4cMO_2c-1" source="Q1WiioonHet7PoMUpYp9-24" target="Q1WiioonHet7PoMUpYp9-26" edge="1">
          <mxGeometry relative="1" as="geometry" />
        </mxCell>
        <mxCell id="Q1WiioonHet7PoMUpYp9-24" value="cout &amp;lt;&amp;lt; &quot;Введите количество членов ряда:\n&quot;;" style="shape=parallelogram;perimeter=parallelogramPerimeter;whiteSpace=wrap;html=1;fixedSize=1;strokeWidth=2;" parent="_3YJXU0iMjtWT4cMO_2c-1" vertex="1">
          <mxGeometry x="151" y="357.8" width="286" height="30" as="geometry" />
        </mxCell>
        <mxCell id="Q1WiioonHet7PoMUpYp9-29" value="" style="edgeStyle=orthogonalEdgeStyle;rounded=0;orthogonalLoop=1;jettySize=auto;html=1;" parent="_3YJXU0iMjtWT4cMO_2c-1" source="Q1WiioonHet7PoMUpYp9-26" target="Q1WiioonHet7PoMUpYp9-28" edge="1">
          <mxGeometry relative="1" as="geometry" />
        </mxCell>
        <mxCell id="Q1WiioonHet7PoMUpYp9-26" value="cin &amp;gt;&amp;gt; num;" style="shape=parallelogram;perimeter=parallelogramPerimeter;whiteSpace=wrap;html=1;fixedSize=1;strokeWidth=2;" parent="_3YJXU0iMjtWT4cMO_2c-1" vertex="1">
          <mxGeometry x="234" y="407.8" width="120" height="25" as="geometry" />
        </mxCell>
        <mxCell id="Q1WiioonHet7PoMUpYp9-31" value="" style="edgeStyle=orthogonalEdgeStyle;rounded=0;orthogonalLoop=1;jettySize=auto;html=1;" parent="_3YJXU0iMjtWT4cMO_2c-1" source="Q1WiioonHet7PoMUpYp9-28" target="Q1WiioonHet7PoMUpYp9-30" edge="1">
          <mxGeometry relative="1" as="geometry" />
        </mxCell>
        <mxCell id="Q1WiioonHet7PoMUpYp9-38" style="edgeStyle=orthogonalEdgeStyle;rounded=0;orthogonalLoop=1;jettySize=auto;html=1;entryX=0.5;entryY=0;entryDx=0;entryDy=0;" parent="_3YJXU0iMjtWT4cMO_2c-1" source="Q1WiioonHet7PoMUpYp9-28" edge="1">
          <mxGeometry relative="1" as="geometry">
            <mxPoint x="294" y="797.8" as="targetPoint" />
            <Array as="points">
              <mxPoint x="561" y="505.8" />
              <mxPoint x="561" y="767.8" />
              <mxPoint x="294" y="767.8" />
              <mxPoint x="294" y="797.8" />
            </Array>
          </mxGeometry>
        </mxCell>
        <mxCell id="Q1WiioonHet7PoMUpYp9-28" value="while (num &amp;lt; 1)" style="rhombus;whiteSpace=wrap;html=1;strokeWidth=2;" parent="_3YJXU0iMjtWT4cMO_2c-1" vertex="1">
          <mxGeometry x="231" y="465.8" width="126" height="80" as="geometry" />
        </mxCell>
        <mxCell id="Q1WiioonHet7PoMUpYp9-35" value="" style="edgeStyle=orthogonalEdgeStyle;rounded=0;orthogonalLoop=1;jettySize=auto;html=1;" parent="_3YJXU0iMjtWT4cMO_2c-1" source="Q1WiioonHet7PoMUpYp9-30" target="Q1WiioonHet7PoMUpYp9-34" edge="1">
          <mxGeometry relative="1" as="geometry" />
        </mxCell>
        <mxCell id="Q1WiioonHet7PoMUpYp9-30" value="&lt;div&gt;&amp;nbsp; &amp;nbsp; &amp;nbsp; &amp;nbsp;cout &amp;lt;&amp;lt; &quot;Количество членов должно быть натуральным числом.\&lt;/div&gt;&lt;div&gt;Попробуйте еще раз:\n&quot;;&lt;/div&gt;" style="shape=parallelogram;perimeter=parallelogramPerimeter;whiteSpace=wrap;html=1;fixedSize=1;strokeWidth=2;" parent="_3YJXU0iMjtWT4cMO_2c-1" vertex="1">
          <mxGeometry x="64" y="577.8" width="460" height="40" as="geometry" />
        </mxCell>
        <mxCell id="Q1WiioonHet7PoMUpYp9-32" value="1" style="text;html=1;align=center;verticalAlign=middle;resizable=0;points=[];autosize=1;strokeColor=none;fillColor=none;" parent="_3YJXU0iMjtWT4cMO_2c-1" vertex="1">
          <mxGeometry x="264" y="535.8" width="30" height="30" as="geometry" />
        </mxCell>
        <mxCell id="Q1WiioonHet7PoMUpYp9-33" value="{" style="text;html=1;align=center;verticalAlign=middle;resizable=0;points=[];autosize=1;strokeColor=none;fillColor=none;" parent="_3YJXU0iMjtWT4cMO_2c-1" vertex="1">
          <mxGeometry x="278" y="515.8" width="30" height="30" as="geometry" />
        </mxCell>
        <mxCell id="Q1WiioonHet7PoMUpYp9-36" style="edgeStyle=orthogonalEdgeStyle;rounded=0;orthogonalLoop=1;jettySize=auto;html=1;" parent="_3YJXU0iMjtWT4cMO_2c-1" source="Q1WiioonHet7PoMUpYp9-34" edge="1">
          <mxGeometry relative="1" as="geometry">
            <mxPoint x="290" y="447.8" as="targetPoint" />
            <Array as="points">
              <mxPoint x="294" y="727.8" />
              <mxPoint y="727.8" />
              <mxPoint y="447.8" />
            </Array>
          </mxGeometry>
        </mxCell>
        <mxCell id="Q1WiioonHet7PoMUpYp9-34" value="cin &amp;gt;&amp;gt; num;" style="shape=parallelogram;perimeter=parallelogramPerimeter;whiteSpace=wrap;html=1;fixedSize=1;strokeWidth=2;" parent="_3YJXU0iMjtWT4cMO_2c-1" vertex="1">
          <mxGeometry x="234" y="647.8" width="120" height="22" as="geometry" />
        </mxCell>
        <mxCell id="Q1WiioonHet7PoMUpYp9-37" value="}" style="text;html=1;align=center;verticalAlign=middle;resizable=0;points=[];autosize=1;strokeColor=none;fillColor=none;" parent="_3YJXU0iMjtWT4cMO_2c-1" vertex="1">
          <mxGeometry x="287" y="667.8" width="30" height="30" as="geometry" />
        </mxCell>
        <mxCell id="Q1WiioonHet7PoMUpYp9-39" value="0" style="text;html=1;align=center;verticalAlign=middle;resizable=0;points=[];autosize=1;strokeColor=none;fillColor=none;" parent="_3YJXU0iMjtWT4cMO_2c-1" vertex="1">
          <mxGeometry x="355" y="475.8" width="30" height="30" as="geometry" />
        </mxCell>
        <mxCell id="BxczKA31ZKVbzJLC6N1e-2" value="" style="strokeWidth=2;html=1;shape=mxgraph.flowchart.annotation_1;align=left;pointerEvents=1;" parent="_3YJXU0iMjtWT4cMO_2c-1" vertex="1">
          <mxGeometry x="417" y="33.8" width="63" height="127" as="geometry" />
        </mxCell>
        <mxCell id="BxczKA31ZKVbzJLC6N1e-3" value="&lt;div style=&quot;text-align: left; text-wrap: nowrap;&quot;&gt;&lt;font&gt;#include &amp;lt;iostream&amp;gt;&lt;/font&gt;&lt;/div&gt;&lt;div style=&quot;text-align: left; text-wrap: nowrap;&quot;&gt;&lt;font&gt;#include &amp;lt;clocale&amp;gt;&lt;/font&gt;&lt;/div&gt;&lt;div style=&quot;text-align: left; text-wrap: nowrap;&quot;&gt;&lt;font&gt;using namespace std;&lt;/font&gt;&lt;/div&gt;&lt;div style=&quot;text-align: left; text-wrap: nowrap;&quot;&gt;&lt;font&gt;&lt;span style=&quot;text-align: center; text-wrap: wrap;&quot;&gt;double pow(double a, int b);&lt;/span&gt;&lt;br&gt;&lt;/font&gt;&lt;/div&gt;&lt;div style=&quot;text-align: left; text-wrap: nowrap;&quot;&gt;&lt;font&gt;&lt;span style=&quot;text-align: center; text-wrap: wrap;&quot;&gt;int factorial(int a);&lt;/span&gt;&lt;span style=&quot;text-align: center; text-wrap: wrap;&quot;&gt;&lt;br&gt;&lt;/span&gt;&lt;/font&gt;&lt;/div&gt;&lt;div style=&quot;text-align: left; text-wrap: nowrap;&quot;&gt;&lt;font&gt;&lt;span style=&quot;text-align: center; text-wrap: wrap;&quot;&gt;double get_sum(double x, int n);&lt;/span&gt;&lt;span style=&quot;text-align: center; text-wrap: wrap;&quot;&gt;&lt;br&gt;&lt;/span&gt;&lt;/font&gt;&lt;/div&gt;&lt;div style=&quot;text-align: left; text-wrap: nowrap;&quot;&gt;&lt;font&gt;int num;&lt;/font&gt;&lt;/div&gt;&lt;div style=&quot;text-align: left; text-wrap: nowrap;&quot;&gt;&lt;font&gt;double x, s&lt;/font&gt;&lt;/div&gt;" style="text;strokeColor=none;align=center;fillColor=none;html=1;verticalAlign=middle;whiteSpace=wrap;rounded=0;" parent="_3YJXU0iMjtWT4cMO_2c-1" vertex="1">
          <mxGeometry x="407.5" width="200" height="194.6" as="geometry" />
        </mxCell>
        <mxCell id="Bc5S9JSsndYewx4gKJJO-1" value="" style="edgeStyle=orthogonalEdgeStyle;rounded=0;orthogonalLoop=1;jettySize=auto;html=1;" parent="_3YJXU0iMjtWT4cMO_2c-1" source="Bc5S9JSsndYewx4gKJJO-2" target="Bc5S9JSsndYewx4gKJJO-3" edge="1">
          <mxGeometry relative="1" as="geometry" />
        </mxCell>
        <mxCell id="Bc5S9JSsndYewx4gKJJO-2" value="s = get_sum(x, num - 1);" style="whiteSpace=wrap;html=1;strokeWidth=2;" parent="_3YJXU0iMjtWT4cMO_2c-1" vertex="1">
          <mxGeometry x="220" y="844.8" width="146" height="30" as="geometry" />
        </mxCell>
        <mxCell id="Bc5S9JSsndYewx4gKJJO-3" value="cout &amp;lt;&amp;lt; &quot;s = &quot; &amp;lt;&amp;lt; s;" style="shape=parallelogram;perimeter=parallelogramPerimeter;whiteSpace=wrap;html=1;fixedSize=1;strokeWidth=2;" parent="_3YJXU0iMjtWT4cMO_2c-1" vertex="1">
          <mxGeometry x="220" y="898.8" width="146" height="30" as="geometry" />
        </mxCell>
        <mxCell id="Bc5S9JSsndYewx4gKJJO-4" value="return 0;" style="strokeWidth=2;html=1;shape=mxgraph.flowchart.start_1;whiteSpace=wrap;" parent="_3YJXU0iMjtWT4cMO_2c-1" vertex="1">
          <mxGeometry x="243" y="948.8" width="100" height="60" as="geometry" />
        </mxCell>
        <mxCell id="Bc5S9JSsndYewx4gKJJO-5" style="edgeStyle=orthogonalEdgeStyle;rounded=0;orthogonalLoop=1;jettySize=auto;html=1;entryX=0.5;entryY=0;entryDx=0;entryDy=0;entryPerimeter=0;" parent="_3YJXU0iMjtWT4cMO_2c-1" source="Bc5S9JSsndYewx4gKJJO-3" target="Bc5S9JSsndYewx4gKJJO-4" edge="1">
          <mxGeometry relative="1" as="geometry" />
        </mxCell>
        <mxCell id="Bc5S9JSsndYewx4gKJJO-6" value="}" style="text;html=1;align=center;verticalAlign=middle;resizable=0;points=[];autosize=1;strokeColor=none;fillColor=none;" parent="_3YJXU0iMjtWT4cMO_2c-1" vertex="1">
          <mxGeometry x="279" y="1006.8" width="30" height="30" as="geometry" />
        </mxCell>
        <mxCell id="Bc5S9JSsndYewx4gKJJO-8" style="edgeStyle=orthogonalEdgeStyle;rounded=0;orthogonalLoop=1;jettySize=auto;html=1;entryX=0.5;entryY=0;entryDx=0;entryDy=0;" parent="_3YJXU0iMjtWT4cMO_2c-1" source="Bc5S9JSsndYewx4gKJJO-7" target="Bc5S9JSsndYewx4gKJJO-2" edge="1">
          <mxGeometry relative="1" as="geometry">
            <mxPoint x="293" y="842.6001098632812" as="targetPoint" />
          </mxGeometry>
        </mxCell>
        <mxCell id="Bc5S9JSsndYewx4gKJJO-7" value="cout &amp;lt;&amp;lt; &#39;\n&#39;;" style="shape=parallelogram;perimeter=parallelogramPerimeter;whiteSpace=wrap;html=1;fixedSize=1;strokeWidth=2;" parent="_3YJXU0iMjtWT4cMO_2c-1" vertex="1">
          <mxGeometry x="233" y="798.8" width="120" height="22" as="geometry" />
        </mxCell>
      </root>
    </mxGraphModel>
  </diagram>
  <diagram id="ARzTOkD0Cekr52Ye9fpH" name="pow">
    <mxGraphModel dx="1290" dy="717" grid="0" gridSize="10" guides="1" tooltips="1" connect="1" arrows="1" fold="1" page="1" pageScale="1" pageWidth="827" pageHeight="1169" math="0" shadow="0">
      <root>
        <mxCell id="0" />
        <mxCell id="1" parent="0" />
        <mxCell id="uLEAhtESocp-VYS2zZs4-1" value="" style="verticalLabelPosition=bottom;verticalAlign=top;html=1;shape=process;whiteSpace=wrap;rounded=1;size=0.0625;arcSize=6;" parent="1" vertex="1">
          <mxGeometry x="300" y="40" width="200" height="60" as="geometry" />
        </mxCell>
        <mxCell id="uLEAhtESocp-VYS2zZs4-2" value="" style="edgeStyle=orthogonalEdgeStyle;rounded=0;orthogonalLoop=1;jettySize=auto;html=1;exitX=0.5;exitY=1;exitDx=0;exitDy=0;" parent="1" source="uLEAhtESocp-VYS2zZs4-1" target="uLEAhtESocp-VYS2zZs4-6" edge="1">
          <mxGeometry relative="1" as="geometry">
            <mxPoint x="400" y="110" as="sourcePoint" />
          </mxGeometry>
        </mxCell>
        <mxCell id="uLEAhtESocp-VYS2zZs4-3" value="&lt;font style=&quot;font-size: 14px;&quot;&gt;double pow(double a, int b)&lt;/font&gt;" style="text;strokeColor=none;align=center;fillColor=none;html=1;verticalAlign=middle;whiteSpace=wrap;rounded=0;" parent="1" vertex="1">
          <mxGeometry x="310" y="55" width="180" height="30" as="geometry" />
        </mxCell>
        <mxCell id="uLEAhtESocp-VYS2zZs4-4" style="edgeStyle=orthogonalEdgeStyle;rounded=0;orthogonalLoop=1;jettySize=auto;html=1;exitX=0;exitY=0.5;exitDx=0;exitDy=0;" parent="1" source="uLEAhtESocp-VYS2zZs4-6" target="uLEAhtESocp-VYS2zZs4-8" edge="1">
          <mxGeometry relative="1" as="geometry">
            <mxPoint x="300" y="248" as="targetPoint" />
          </mxGeometry>
        </mxCell>
        <mxCell id="uLEAhtESocp-VYS2zZs4-5" style="edgeStyle=orthogonalEdgeStyle;rounded=0;orthogonalLoop=1;jettySize=auto;html=1;exitX=1;exitY=0.5;exitDx=0;exitDy=0;" parent="1" source="uLEAhtESocp-VYS2zZs4-6" edge="1">
          <mxGeometry relative="1" as="geometry">
            <mxPoint x="400" y="298" as="targetPoint" />
            <Array as="points">
              <mxPoint x="500" y="168" />
              <mxPoint x="500" y="298" />
              <mxPoint x="420" y="298" />
            </Array>
          </mxGeometry>
        </mxCell>
        <mxCell id="uLEAhtESocp-VYS2zZs4-6" value="&lt;font style=&quot;font-size: 14px;&quot;&gt;if (b == 0)&lt;/font&gt;" style="rhombus;whiteSpace=wrap;html=1;" parent="1" vertex="1">
          <mxGeometry x="330" y="128" width="140" height="80" as="geometry" />
        </mxCell>
        <mxCell id="uLEAhtESocp-VYS2zZs4-7" style="edgeStyle=orthogonalEdgeStyle;rounded=0;orthogonalLoop=1;jettySize=auto;html=1;exitX=0.5;exitY=1;exitDx=0;exitDy=0;exitPerimeter=0;" parent="1" source="uLEAhtESocp-VYS2zZs4-8" edge="1">
          <mxGeometry relative="1" as="geometry">
            <mxPoint x="400" y="298" as="targetPoint" />
            <Array as="points">
              <mxPoint x="310" y="298" />
            </Array>
          </mxGeometry>
        </mxCell>
        <mxCell id="uLEAhtESocp-VYS2zZs4-8" value="&lt;font style=&quot;font-size: 14px;&quot;&gt;return 1;&lt;/font&gt;" style="strokeWidth=2;html=1;shape=mxgraph.flowchart.start_1;whiteSpace=wrap;" parent="1" vertex="1">
          <mxGeometry x="260" y="218" width="100" height="60" as="geometry" />
        </mxCell>
        <mxCell id="uLEAhtESocp-VYS2zZs4-9" value="1" style="text;html=1;align=center;verticalAlign=middle;resizable=0;points=[];autosize=1;strokeColor=none;fillColor=none;" parent="1" vertex="1">
          <mxGeometry x="305" y="136" width="30" height="30" as="geometry" />
        </mxCell>
        <mxCell id="uLEAhtESocp-VYS2zZs4-10" value="" style="endArrow=classic;html=1;rounded=0;entryX=0.5;entryY=0;entryDx=0;entryDy=0;entryPerimeter=0;" parent="1" target="uLEAhtESocp-VYS2zZs4-12" edge="1">
          <mxGeometry width="50" height="50" relative="1" as="geometry">
            <mxPoint x="400" y="298" as="sourcePoint" />
            <mxPoint x="400" y="318" as="targetPoint" />
          </mxGeometry>
        </mxCell>
        <mxCell id="uLEAhtESocp-VYS2zZs4-11" value="0" style="text;html=1;align=center;verticalAlign=middle;resizable=0;points=[];autosize=1;strokeColor=none;fillColor=none;" parent="1" vertex="1">
          <mxGeometry x="475" y="136" width="30" height="30" as="geometry" />
        </mxCell>
        <mxCell id="uLEAhtESocp-VYS2zZs4-12" value="&lt;font style=&quot;font-size: 14px;&quot;&gt;return a * pow(a, b - 1);&lt;/font&gt;" style="strokeWidth=2;html=1;shape=mxgraph.flowchart.start_1;whiteSpace=wrap;" parent="1" vertex="1">
          <mxGeometry x="270" y="338" width="260" height="60" as="geometry" />
        </mxCell>
        <mxCell id="uLEAhtESocp-VYS2zZs4-13" value="{" style="text;html=1;align=center;verticalAlign=middle;resizable=0;points=[];autosize=1;strokeColor=none;fillColor=none;" parent="1" vertex="1">
          <mxGeometry x="370" y="98" width="30" height="30" as="geometry" />
        </mxCell>
        <mxCell id="3X-f9h_WXRAImnjHeYu5-1" value="}" style="text;html=1;align=center;verticalAlign=middle;resizable=0;points=[];autosize=1;strokeColor=none;fillColor=none;" parent="1" vertex="1">
          <mxGeometry x="395" y="396" width="30" height="30" as="geometry" />
        </mxCell>
      </root>
    </mxGraphModel>
  </diagram>
  <diagram id="FU-Jg_Y20t8PTTbQp7U9" name="factorial">
    <mxGraphModel dx="1290" dy="717" grid="0" gridSize="10" guides="1" tooltips="1" connect="1" arrows="1" fold="1" page="1" pageScale="1" pageWidth="827" pageHeight="1169" math="0" shadow="0">
      <root>
        <mxCell id="0" />
        <mxCell id="1" parent="0" />
        <mxCell id="_ivrb6qoG-hsUHMRF3iB-1" value="" style="verticalLabelPosition=bottom;verticalAlign=top;html=1;shape=process;whiteSpace=wrap;rounded=1;size=0.0625;arcSize=6;" parent="1" vertex="1">
          <mxGeometry x="260" y="40" width="200" height="60" as="geometry" />
        </mxCell>
        <mxCell id="_ivrb6qoG-hsUHMRF3iB-2" value="" style="edgeStyle=orthogonalEdgeStyle;rounded=0;orthogonalLoop=1;jettySize=auto;html=1;exitX=0.5;exitY=1;exitDx=0;exitDy=0;" parent="1" source="_ivrb6qoG-hsUHMRF3iB-1" target="_ivrb6qoG-hsUHMRF3iB-6" edge="1">
          <mxGeometry relative="1" as="geometry">
            <mxPoint x="360" y="110" as="sourcePoint" />
          </mxGeometry>
        </mxCell>
        <mxCell id="_ivrb6qoG-hsUHMRF3iB-3" value="&lt;font style=&quot;font-size: 14px;&quot;&gt;int factorial(int a)&lt;/font&gt;" style="text;strokeColor=none;align=center;fillColor=none;html=1;verticalAlign=middle;whiteSpace=wrap;rounded=0;" parent="1" vertex="1">
          <mxGeometry x="270" y="55" width="180" height="30" as="geometry" />
        </mxCell>
        <mxCell id="_ivrb6qoG-hsUHMRF3iB-4" style="edgeStyle=orthogonalEdgeStyle;rounded=0;orthogonalLoop=1;jettySize=auto;html=1;exitX=0;exitY=0.5;exitDx=0;exitDy=0;" parent="1" source="_ivrb6qoG-hsUHMRF3iB-6" target="_ivrb6qoG-hsUHMRF3iB-8" edge="1">
          <mxGeometry relative="1" as="geometry">
            <mxPoint x="260" y="250" as="targetPoint" />
          </mxGeometry>
        </mxCell>
        <mxCell id="_ivrb6qoG-hsUHMRF3iB-5" style="edgeStyle=orthogonalEdgeStyle;rounded=0;orthogonalLoop=1;jettySize=auto;html=1;exitX=1;exitY=0.5;exitDx=0;exitDy=0;" parent="1" source="_ivrb6qoG-hsUHMRF3iB-6" edge="1">
          <mxGeometry relative="1" as="geometry">
            <mxPoint x="360" y="300" as="targetPoint" />
            <Array as="points">
              <mxPoint x="460" y="170" />
              <mxPoint x="460" y="300" />
              <mxPoint x="380" y="300" />
            </Array>
          </mxGeometry>
        </mxCell>
        <mxCell id="_ivrb6qoG-hsUHMRF3iB-6" value="&lt;font style=&quot;font-size: 14px;&quot;&gt;if (a == 1)&lt;/font&gt;" style="rhombus;whiteSpace=wrap;html=1;" parent="1" vertex="1">
          <mxGeometry x="290" y="130" width="140" height="80" as="geometry" />
        </mxCell>
        <mxCell id="_ivrb6qoG-hsUHMRF3iB-7" style="edgeStyle=orthogonalEdgeStyle;rounded=0;orthogonalLoop=1;jettySize=auto;html=1;exitX=0.5;exitY=1;exitDx=0;exitDy=0;exitPerimeter=0;" parent="1" source="_ivrb6qoG-hsUHMRF3iB-8" edge="1">
          <mxGeometry relative="1" as="geometry">
            <mxPoint x="360" y="300" as="targetPoint" />
            <Array as="points">
              <mxPoint x="270" y="300" />
            </Array>
          </mxGeometry>
        </mxCell>
        <mxCell id="_ivrb6qoG-hsUHMRF3iB-8" value="&lt;font style=&quot;font-size: 14px;&quot;&gt;return 1;&lt;/font&gt;" style="strokeWidth=2;html=1;shape=mxgraph.flowchart.start_1;whiteSpace=wrap;" parent="1" vertex="1">
          <mxGeometry x="220" y="220" width="100" height="60" as="geometry" />
        </mxCell>
        <mxCell id="_ivrb6qoG-hsUHMRF3iB-9" value="1" style="text;html=1;align=center;verticalAlign=middle;resizable=0;points=[];autosize=1;strokeColor=none;fillColor=none;" parent="1" vertex="1">
          <mxGeometry x="265" y="138" width="30" height="30" as="geometry" />
        </mxCell>
        <mxCell id="_ivrb6qoG-hsUHMRF3iB-10" value="" style="endArrow=classic;html=1;rounded=0;entryX=0.5;entryY=0;entryDx=0;entryDy=0;entryPerimeter=0;" parent="1" target="_ivrb6qoG-hsUHMRF3iB-12" edge="1">
          <mxGeometry width="50" height="50" relative="1" as="geometry">
            <mxPoint x="360" y="300" as="sourcePoint" />
            <mxPoint x="360" y="320" as="targetPoint" />
          </mxGeometry>
        </mxCell>
        <mxCell id="_ivrb6qoG-hsUHMRF3iB-11" value="0" style="text;html=1;align=center;verticalAlign=middle;resizable=0;points=[];autosize=1;strokeColor=none;fillColor=none;" parent="1" vertex="1">
          <mxGeometry x="435" y="138" width="30" height="30" as="geometry" />
        </mxCell>
        <mxCell id="_ivrb6qoG-hsUHMRF3iB-12" value="&lt;font style=&quot;font-size: 14px;&quot;&gt;return a * factorial(a - 1);&lt;/font&gt;" style="strokeWidth=2;html=1;shape=mxgraph.flowchart.start_1;whiteSpace=wrap;" parent="1" vertex="1">
          <mxGeometry x="230" y="340" width="260" height="60" as="geometry" />
        </mxCell>
        <mxCell id="_ivrb6qoG-hsUHMRF3iB-13" value="{" style="text;html=1;align=center;verticalAlign=middle;resizable=0;points=[];autosize=1;strokeColor=none;fillColor=none;" parent="1" vertex="1">
          <mxGeometry x="330" y="98" width="30" height="30" as="geometry" />
        </mxCell>
        <mxCell id="_ivrb6qoG-hsUHMRF3iB-14" value="}" style="text;html=1;align=center;verticalAlign=middle;resizable=0;points=[];autosize=1;strokeColor=none;fillColor=none;" parent="1" vertex="1">
          <mxGeometry x="360" y="400" width="30" height="30" as="geometry" />
        </mxCell>
      </root>
    </mxGraphModel>
  </diagram>
  <diagram id="blEiTimnudmwZVlmkZ4v" name="get_sum">
    <mxGraphModel dx="1290" dy="717" grid="0" gridSize="10" guides="1" tooltips="1" connect="1" arrows="1" fold="1" page="1" pageScale="1" pageWidth="827" pageHeight="1169" math="0" shadow="0">
      <root>
        <mxCell id="0" />
        <mxCell id="1" parent="0" />
        <mxCell id="o2pNoueOyfuJMLWRsUnK-1" value="" style="verticalLabelPosition=bottom;verticalAlign=top;html=1;shape=process;whiteSpace=wrap;rounded=1;size=0.0625;arcSize=6;" parent="1" vertex="1">
          <mxGeometry x="280" y="40" width="240" height="60" as="geometry" />
        </mxCell>
        <mxCell id="o2pNoueOyfuJMLWRsUnK-2" value="" style="edgeStyle=orthogonalEdgeStyle;rounded=0;orthogonalLoop=1;jettySize=auto;html=1;exitX=0.5;exitY=1;exitDx=0;exitDy=0;" parent="1" source="o2pNoueOyfuJMLWRsUnK-1" target="o2pNoueOyfuJMLWRsUnK-6" edge="1">
          <mxGeometry relative="1" as="geometry">
            <mxPoint x="390" y="110" as="sourcePoint" />
          </mxGeometry>
        </mxCell>
        <mxCell id="o2pNoueOyfuJMLWRsUnK-3" value="&lt;font style=&quot;font-size: 14px;&quot;&gt;double get_sum(double x, int n)&lt;/font&gt;" style="text;strokeColor=none;align=center;fillColor=none;html=1;verticalAlign=middle;whiteSpace=wrap;rounded=0;" parent="1" vertex="1">
          <mxGeometry x="290" y="55" width="220" height="30" as="geometry" />
        </mxCell>
        <mxCell id="o2pNoueOyfuJMLWRsUnK-4" style="edgeStyle=orthogonalEdgeStyle;rounded=0;orthogonalLoop=1;jettySize=auto;html=1;exitX=0;exitY=0.5;exitDx=0;exitDy=0;" parent="1" source="o2pNoueOyfuJMLWRsUnK-6" target="o2pNoueOyfuJMLWRsUnK-8" edge="1">
          <mxGeometry relative="1" as="geometry">
            <mxPoint x="300" y="248" as="targetPoint" />
          </mxGeometry>
        </mxCell>
        <mxCell id="o2pNoueOyfuJMLWRsUnK-5" style="edgeStyle=orthogonalEdgeStyle;rounded=0;orthogonalLoop=1;jettySize=auto;html=1;exitX=1;exitY=0.5;exitDx=0;exitDy=0;" parent="1" source="o2pNoueOyfuJMLWRsUnK-6" edge="1">
          <mxGeometry relative="1" as="geometry">
            <mxPoint x="400" y="298" as="targetPoint" />
            <Array as="points">
              <mxPoint x="500" y="168" />
              <mxPoint x="500" y="298" />
              <mxPoint x="420" y="298" />
            </Array>
          </mxGeometry>
        </mxCell>
        <mxCell id="o2pNoueOyfuJMLWRsUnK-6" value="&lt;font style=&quot;font-size: 14px;&quot;&gt;if (n == 0)&lt;/font&gt;" style="rhombus;whiteSpace=wrap;html=1;" parent="1" vertex="1">
          <mxGeometry x="330" y="128" width="140" height="80" as="geometry" />
        </mxCell>
        <mxCell id="o2pNoueOyfuJMLWRsUnK-7" style="edgeStyle=orthogonalEdgeStyle;rounded=0;orthogonalLoop=1;jettySize=auto;html=1;exitX=0.5;exitY=1;exitDx=0;exitDy=0;exitPerimeter=0;" parent="1" source="o2pNoueOyfuJMLWRsUnK-8" edge="1">
          <mxGeometry relative="1" as="geometry">
            <mxPoint x="400" y="298" as="targetPoint" />
            <Array as="points">
              <mxPoint x="310" y="298" />
            </Array>
          </mxGeometry>
        </mxCell>
        <mxCell id="o2pNoueOyfuJMLWRsUnK-8" value="&lt;font style=&quot;font-size: 14px;&quot;&gt;return x;&lt;/font&gt;" style="strokeWidth=2;html=1;shape=mxgraph.flowchart.start_1;whiteSpace=wrap;" parent="1" vertex="1">
          <mxGeometry x="260" y="218" width="100" height="60" as="geometry" />
        </mxCell>
        <mxCell id="o2pNoueOyfuJMLWRsUnK-9" value="1" style="text;html=1;align=center;verticalAlign=middle;resizable=0;points=[];autosize=1;strokeColor=none;fillColor=none;" parent="1" vertex="1">
          <mxGeometry x="305" y="136" width="30" height="30" as="geometry" />
        </mxCell>
        <mxCell id="o2pNoueOyfuJMLWRsUnK-10" value="" style="endArrow=classic;html=1;rounded=0;entryX=0.5;entryY=0;entryDx=0;entryDy=0;entryPerimeter=0;" parent="1" target="o2pNoueOyfuJMLWRsUnK-12" edge="1">
          <mxGeometry width="50" height="50" relative="1" as="geometry">
            <mxPoint x="400" y="298" as="sourcePoint" />
            <mxPoint x="400" y="318" as="targetPoint" />
          </mxGeometry>
        </mxCell>
        <mxCell id="o2pNoueOyfuJMLWRsUnK-11" value="0" style="text;html=1;align=center;verticalAlign=middle;resizable=0;points=[];autosize=1;strokeColor=none;fillColor=none;" parent="1" vertex="1">
          <mxGeometry x="475" y="136" width="30" height="30" as="geometry" />
        </mxCell>
        <mxCell id="o2pNoueOyfuJMLWRsUnK-12" value="&lt;font style=&quot;font-size: 14px;&quot;&gt;return (pow(x, 2 * n + 1) / factorial(2 * n + 1)) + get_sum(x, n - 1);&lt;/font&gt;" style="strokeWidth=2;html=1;shape=mxgraph.flowchart.start_1;whiteSpace=wrap;" parent="1" vertex="1">
          <mxGeometry x="80" y="350" width="640" height="60" as="geometry" />
        </mxCell>
        <mxCell id="o2pNoueOyfuJMLWRsUnK-13" value="{" style="text;html=1;align=center;verticalAlign=middle;resizable=0;points=[];autosize=1;strokeColor=none;fillColor=none;" parent="1" vertex="1">
          <mxGeometry x="370" y="98" width="30" height="30" as="geometry" />
        </mxCell>
        <mxCell id="o2pNoueOyfuJMLWRsUnK-14" value="}" style="text;html=1;align=center;verticalAlign=middle;resizable=0;points=[];autosize=1;strokeColor=none;fillColor=none;" parent="1" vertex="1">
          <mxGeometry x="400" y="410" width="30" height="30" as="geometry" />
        </mxCell>
      </root>
    </mxGraphModel>
  </diagram>
</mxfile>
